<svg width="640" height="160" viewBox="0 0 640 160" fill="none" xmlns="http://www.w3.org/2000/svg">
  <defs>
    <linearGradient id="gerit-flow-light" x1="161.5" y1="40" x2="239.5" y2="118" gradientUnits="userSpaceOnUse">
      <stop stop-color="#06A8A8"/>
      <stop offset="1" stop-color="#11B7FF"/>
    </linearGradient>
    <linearGradient id="gerit-accent-light" x1="311.5" y1="118" x2="497.5" y2="118" gradientUnits="userSpaceOnUse">
      <stop stop-color="#06A8A8"/>
      <stop offset="1" stop-color="#11B7FF"/>
    </linearGradient>
  </defs>
  <rect x="141.5" y="18" width="124" height="124" rx="34" fill="#07161D"/>
  <rect x="142.25" y="18.75" width="122.5" height="122.5" rx="33.25" stroke="#17313A" stroke-width="1.5"/>
  <path d="M225.5 46H197.5C178.17 46 163.5 60.67 163.5 80C163.5 99.33 178.17 114 197.5 114H217.5C227.5 114 235.5 106 235.5 96C235.5 86 227.5 78 217.5 78H192.5" stroke="url(#gerit-flow-light)" stroke-width="14" stroke-linecap="round" stroke-linejoin="round"/>
  <circle cx="225.5" cy="46" r="8" fill="#7FE7FF"/>
  <circle cx="192.5" cy="78" r="7" fill="#E8FFFE"/>
  <circle cx="217.5" cy="114" r="8" fill="#11B7FF"/>
  <path d="M297.5 110H437.5C463.5 110 485.5 92 492.5 67" stroke="url(#gerit-accent-light)" stroke-width="6" stroke-linecap="round"/>
  <circle cx="297.5" cy="110" r="6" fill="#06A8A8"/>
  <circle cx="492.5" cy="67" r="6" fill="#11B7FF"/>
  <text x="295.5" y="90" fill="#0D1C24" font-family="Segoe UI, Arial, sans-serif" font-size="68" font-weight="700" letter-spacing="1.5">Gerit</text>
</svg>
